<svg id="Capa_1" enable-background="new 0 0 512 512" height="512" viewBox="0 0 512 512" width="512" xmlns="http://www.w3.org/2000/svg"><g><path d="m495.484 90.839h-478.968l-8.699 16.516v288.129c0 9.121 7.395 16.516 16.516 16.516h471.151l16.516-7.355v-297.29c0-9.122-7.395-16.516-16.516-16.516zm-352.919 299.467h-20.871c-5.768 0-10.435-4.667-10.435-10.435s4.667-10.435 10.435-10.435h20.871c5.768 0 10.435 4.667 10.435 10.435s-4.667 10.435-10.435 10.435zm246.991-.75h-19.371c-5.354 0-9.685-4.332-9.685-9.685 0-5.354 4.332-9.685 9.685-9.685h19.371c5.353 0 9.685 4.332 9.685 9.685.001 5.353-4.331 9.685-9.685 9.685z" fill="#faf5dc"/><path d="m432.722 404.645-14.522-48.408c-3.144-10.48-12.789-17.656-23.73-17.656h-276.94c-10.941 0-20.586 7.176-23.729 17.655l-14.523 48.409h-29.73c-18.243 0-33.032-14.789-33.032-33.032v-280.774c-9.121 0-16.516 7.394-16.516 16.516v297.29c0 9.122 7.395 16.516 16.516 16.516h57.807l17.177-7.495h331.5l14.677 7.495h57.807c9.121 0 16.516-7.395 16.516-16.516zm-292.335-16.516h-16.516c-4.565 0-8.258-3.694-8.258-8.258s3.694-8.258 8.258-8.258h16.516c4.565 0 8.258 3.694 8.258 8.258s-3.693 8.258-8.258 8.258zm247.742 0h-16.516c-4.565 0-8.258-3.694-8.258-8.258s3.694-8.258 8.258-8.258h16.516c4.565 0 8.258 3.694 8.258 8.258s-3.693 8.258-8.258 8.258z" fill="#f9eac7"/><path d="m90.858 123.871h-49.568c-4.561 0-8.258 3.697-8.258 8.258v165.161c0 4.56 3.697 8.258 8.258 8.258h115.632l-25.422-114.048z" fill="#ff8086"/><path d="m165.161 123.871h-74.303l66.064 181.677h140.368l-52.29-101.548z" fill="#ffe07d"/><path d="m264.258 123.871h-99.097l132.129 181.677h156.904l-90.694-108.548z" fill="#b3e59f"/><path d="m470.71 123.871h-206.452l189.935 181.677h16.516c4.561 0 8.258-3.697 8.258-8.258v-165.161c.001-4.561-3.697-8.258-8.257-8.258z" fill="#a4ccff"/><path d="m79.278 404.645-4.955 16.516h363.354l-4.955-16.516z" fill="#f4dbb3"/><path d="m244.754 206.452h65.642v49.548h-65.642z" fill="#fff"/><path d="m74.323 214.71v33.032c0 4.56 3.697 8.258 8.258 8.258h162.173c1.885-7.966 2.988-16.232 2.988-24.774s-1.103-16.808-2.988-24.774h-162.173c-4.561 0-8.258 3.697-8.258 8.258z" fill="#5d5360"/><path d="m429.419 206.452h-119.023c-3.102 7.656-4.847 16.006-4.847 24.774s1.745 17.118 4.847 24.774h119.024c4.56 0 8.258-3.698 8.258-8.258v-33.032c-.001-4.561-3.698-8.258-8.259-8.258z" fill="#5d5360"/><g fill="#fff"><circle cx="140.387" cy="231.226" r="24.774"/><circle cx="371.613" cy="231.226" r="24.774"/></g></g></svg>